<?xml version="1.0" encoding="UTF-8"?>
<svg id="Orange" xmlns="http://www.w3.org/2000/svg" viewBox="0 0 514.51 154.81">
  <defs>
    <style>
      .cls-1 {
        fill: #53ba65;
      }

      .cls-1, .cls-2 {
        stroke-width: 0px;
      }

      .cls-2 {
        fill: #231f20;
      }
    </style>
  </defs>
  <g>
    <path class="cls-1" d="m259.02,76.56v5.88h15.35v5.69h-15.16v44.16h-6.73v-44.16h-8.91v-5.69h8.91v-6.16c0-8.91,5.31-14.78,15.07-14.78,3.7,0,7.49,1.04,9.95,3.13l-2.28,5.02c-1.89-1.61-4.55-2.46-7.39-2.46-5.78,0-8.81,3.22-8.81,9.38Z"/>
    <path class="cls-1" d="m278.45,107.36c0-14.79,10.8-25.3,25.4-25.3s25.3,10.52,25.3,25.3-10.71,25.4-25.3,25.4-25.4-10.61-25.4-25.4Zm43.88,0c0-11.66-7.87-19.43-18.48-19.43s-18.58,7.77-18.58,19.43,7.96,19.43,18.58,19.43,18.48-7.77,18.48-19.43Z"/>
    <path class="cls-1" d="m368,82.06v6.54c-.57,0-1.14-.09-1.61-.09-10.42,0-16.77,6.63-16.77,18.39v25.4h-6.73v-49.85h6.44v9.76c3.13-6.63,9.48-10.14,18.67-10.14Z"/>
    <path class="cls-1" d="m463.15,103.38v28.91h-6.73v-28.24c0-10.52-5.31-15.92-14.31-15.92-10.24,0-16.68,6.63-16.68,18.01v26.16h-6.73v-28.24c0-10.52-5.31-15.92-14.41-15.92-10.14,0-16.68,6.63-16.68,18.01v26.16h-6.73v-49.85h6.44v9.1c3.51-5.97,9.95-9.48,18.29-9.48s14.69,3.51,17.72,10.52c3.6-6.44,10.71-10.52,19.71-10.52,12.13,0,20.09,7.01,20.09,21.32Z"/>
    <path class="cls-1" d="m474.52,126.6l3.03-5.31c3.98,3.13,10.71,5.59,17.72,5.59,9.48,0,13.36-3.22,13.36-8.15,0-12.98-32.32-2.75-32.32-22.46,0-8.15,7.01-14.22,19.71-14.22,6.44,0,13.46,1.8,17.63,4.64l-2.94,5.4c-4.36-3.03-9.57-4.26-14.69-4.26-9,0-12.98,3.51-12.98,8.25,0,13.46,32.32,3.32,32.32,22.46,0,8.62-7.58,14.22-20.57,14.22-8.25,0-16.21-2.65-20.28-6.16Z"/>
  </g>
  <g>
    <path class="cls-2" d="m214.5,40.9l8.41-17.83c-11.15-7.38-26.41-12.35-42.02-12.35-26.07,0-43.73,12.86-43.73,33.44,0,42.7,64.82,27.78,64.82,54.53,0,9.26-8.4,14.58-22.46,14.58-12.85,0-28.29-6.17-40.64-17.49l-8.75,17.49c12.34,11.31,30.18,19.02,49.04,19.02,26.41,0,45.28-13.2,45.28-34.63.16-43.22-64.65-29.15-64.65-55.39,0-8.06,7.72-12.52,19.55-12.52,9.09,0,22.13,3.26,35.16,11.15"/>
    <path class="cls-2" d="m128.41,71.59c0-24.58-14.31-44.99-35.6-54.59l-7.95,17.06c13.53,7,22.8,20.98,22.8,37.53,0,23.84-19.21,42.7-42.7,42.7s-43.21-18.86-43.21-42.7c0-16.5,9.38-30.45,22.99-37.48l-7.98-17.13C15.47,26.54,1.18,46.89,1.18,71.59c0,34.3,27.78,60.87,63.62,60.87s63.62-26.58,63.62-60.87"/>
    <rect class="cls-2" x="55.49" y="2.75" width="18.49" height="50.5"/>
    <path class="cls-2" d="m260.36,29.8l-14.65,15.01v8.29h35.23v-10.01h-19.72l9-9.36c3.53-3.67,5.95-6.68,7.26-9.04,1.31-2.36,1.97-4.83,1.97-7.4,0-4.72-1.64-8.45-4.9-11.18-3.27-2.74-7.06-4.11-11.36-4.11s-7.86.93-10.64,2.79c-2.79,1.86-5.35,4.6-7.68,8.22l8.93,5.29c2.81-4.48,5.79-6.72,8.93-6.72,1.71,0,3.12.56,4.21,1.68,1.1,1.12,1.64,2.52,1.64,4.18s-.63,3.4-1.89,5.18c-1.26,1.79-3.38,4.18-6.33,7.18"/>
  </g>
</svg>